<?xml version="1.0" standalone="no"?>
<!DOCTYPE svg PUBLIC "-//W3C//DTD SVG 20010904//EN"
 "http://www.w3.org/TR/2001/REC-SVG-20010904/DTD/svg10.dtd">
<svg version="1.0" xmlns="http://www.w3.org/2000/svg"
 width="500.000000pt" height="500.000000pt" viewBox="0 0 500.000000 500.000000"
 preserveAspectRatio="xMidYMid meet">

<g transform="translate(0.000000,500.000000) scale(0.100000,-0.100000)"
fill="#000000" stroke="none">
<path d="M1927 4035 l122 -117 -24 -55 c-14 -30 -36 -64 -50 -75 -14 -11 -24
-28 -23 -41 2 -34 -41 -128 -140 -306 -51 -90 -92 -167 -92 -172 0 -16 54 -49
80 -49 27 0 29 4 90 192 62 190 98 276 128 311 9 10 15 31 14 48 -1 16 8 49
20 73 l23 45 75 -71 c41 -40 150 -145 242 -235 l167 -163 48 -1 c26 0 55 -2
63 -3 8 -2 80 -6 160 -10 80 -4 177 -9 215 -11 135 -9 241 -15 370 -20 72 -3
146 -8 165 -10 39 -5 69 -36 -464 479 -131 127 -244 236 -251 242 -7 7 -73 14
-166 18 -85 4 -165 9 -179 11 -14 2 -97 7 -185 10 -88 4 -176 8 -195 10 -19 2
-102 6 -185 10 l-150 7 122 -117z"/>
<path d="M2118 3667 c-57 -131 -63 -158 -49 -222 16 -69 77 -161 147 -222 l54
-47 0 -588 0 -588 -265 0 -265 0 0 -235 0 -235 735 0 735 0 0 235 0 235 -240
0 -240 0 0 514 0 513 52 7 c70 10 139 40 177 80 24 24 126 226 117 232 -1 1
-136 9 -376 20 -74 4 -140 8 -147 8 -8 2 -314 289 -394 370 -3 3 -22 -31 -41
-77z"/>
</g>
</svg>
